<svg width="288" height="141" viewBox="0 0 288 141" fill="none" xmlns="http://www.w3.org/2000/svg">
<path d="M268.94 71.04C268.94 57.8133 265.9 46.1867 259.82 36.16C253.847 26.1333 245.24 18.1333 235 12.16L244.62 0C259.127 8 269.847 18.1867 276.78 30.56C283.714 42.8267 287.18 56.32 287.18 71.04C287.18 85.6533 283.82 98.9333 277.1 110.88C270.38 122.827 259.127 132.8 244.62 140.8L235 128.64C245.24 122.667 254.38 114.88 260.14 105.28C266.007 95.5733 268.94 84.16 268.94 71.04Z" fill="white"/>
<path d="M219.2 58.5996C207.659 55.7142 191.45 55.4738 179.84 58.5996V113.6H160V43.36C178.541 36.5491 200.16 35.5996 219.2 40.16V58.5996Z" fill="white"/>
<path d="M110.08 71.04C110.08 84.16 112.96 95.5733 118.72 105.28C124.587 114.88 133.28 122.667 143.52 128.64L134.4 140.8C119.893 132.8 108.64 122.827 101.92 110.88C95.1998 98.9333 91.8398 85.6533 91.8398 71.04C91.8398 56.32 95.3065 42.8267 102.24 30.56C109.173 18.1867 119.893 8 134.4 0L143.52 12.16C133.28 18.1333 125.12 26.1333 119.04 36.16C113.067 46.1867 110.08 57.8133 110.08 71.04Z" fill="white"/>
<path d="M29.0402 113.6C15.5 90.72 6.25977 63.7992 0 37.5996H21C25.218 55.409 30.5 76.5996 37.5202 90.72C44.5 77.0996 50.7398 55.2992 56 37.5996H76C69.7398 62.2992 59.5 90.72 45.5202 113.6H29.0402Z" fill="white"/>
</svg>
