<svg width="24" height="24" viewBox="0 0 24 24" fill="none" xmlns="http://www.w3.org/2000/svg">
  <g clip-path="url(#clip0_1101_7)">
    <path fill-rule="evenodd" clip-rule="evenodd"
      d="M4.5 1.5L12 16.5L19.5 1.5H24L20.119 8.77687C20.2397 8.83238 20.359 8.89158 20.4766 8.95443C21.4435 9.47125 22.268 10.2186 22.8771 11.1302C23.4862 12.0417 23.8611 13.0895 23.9685 14.1806C24.076 15.2717 23.9127 16.3724 23.4932 17.3853C23.0736 18.3982 22.4107 19.292 21.5632 19.9876C20.7157 20.6831 19.7098 21.1589 18.6345 21.3728C17.5592 21.5866 16.4477 21.532 15.3986 21.2138C15.2294 21.1625 15.0628 21.1046 14.8989 21.0403C14.5359 20.8979 14.1868 20.7241 13.8553 20.5214L12 24L10.1451 20.5221C9.81392 20.7245 9.46512 20.898 9.10255 21.0403C8.93869 21.1046 8.77203 21.1625 8.6029 21.2138C7.55374 21.532 6.44229 21.5866 5.36699 21.3728C4.2917 21.1589 3.28574 20.6831 2.43824 19.9876C1.59074 19.292 0.927854 18.3982 0.508293 17.3853C0.0887338 16.3724 -0.0745468 15.2717 0.032916 14.1806C0.140378 13.0895 0.515267 12.0417 1.12437 11.1302C1.73348 10.2186 2.55801 9.47125 3.52491 8.95443C3.64211 8.89179 3.76095 8.83277 3.88128 8.77741L0 1.5H4.5ZM8.88391 18.1573L5.14247 11.1421C5.02076 11.1924 4.90132 11.2488 4.78462 11.3112C4.20528 11.6208 3.71126 12.0686 3.3463 12.6148C2.98135 13.161 2.75672 13.7888 2.69234 14.4425C2.62795 15.0962 2.72578 15.7558 2.97717 16.3627C3.22855 16.9696 3.62573 17.5051 4.13353 17.9218C4.64132 18.3386 5.24405 18.6237 5.88833 18.7518C6.53261 18.88 7.19856 18.8472 7.82718 18.6566C8.20336 18.5424 8.55922 18.3739 8.88391 18.1573ZM15.1165 18.1566C15.4415 18.3735 15.7977 18.5423 16.1743 18.6566C16.8029 18.8472 17.4688 18.88 18.1131 18.7518C18.7574 18.6237 19.3601 18.3386 19.8679 17.9218C20.3757 17.5051 20.7729 16.9696 21.0243 16.3627C21.2757 15.7558 21.3735 15.0962 21.3091 14.4425C21.2447 13.7888 21.0201 13.161 20.6552 12.6148C20.2902 12.0686 19.7962 11.6208 19.2168 11.3112C19.0998 11.2486 18.9799 11.192 18.8578 11.1416L15.1165 18.1566Z"
      fill="currentColor" />
    <path fill-rule="evenodd" clip-rule="evenodd"
      d="M7.50129 1.5C8.00244 1.12413 8.54984 0.811678 9.13118 0.57088C9.17466 0.552868 9.2183 0.535274 9.26207 0.518098C10.1343 0.175887 11.0634 -1.22978e-07 12.0012 0C12.939 1.22979e-07 13.8681 0.175887 14.7403 0.518099C14.7841 0.535274 14.8277 0.552869 14.8712 0.57088C15.4525 0.811679 15.9999 1.12413 16.5011 1.5H18L12 13.5L6 1.5H7.50129ZM14.0123 3.47536C13.9175 3.428 13.821 3.38393 13.7228 3.34327C13.177 3.11718 12.592 3.00081 12.0012 3.00081C11.4104 3.00081 10.8254 3.11718 10.2795 3.34327C10.1807 3.3842 10.0835 3.42858 9.98816 3.4763L12 7.49996L14.0123 3.47536Z"
      fill="currentColor" />
  </g>
  <defs>
    <clipPath id="clip0_1101_7">
      <rect width="24" height="24" fill="currentColor" />
    </clipPath>
  </defs>
</svg>
